<svg width="16" height="14" viewBox="0 0 16 14" fill="none" xmlns="http://www.w3.org/2000/svg">
<path d="M7 13C5.81331 13 4.65328 12.6481 3.66658 11.9888C2.67989 11.3295 1.91085 10.3925 1.45673 9.2961C1.0026 8.19975 0.88378 6.99335 1.11529 5.82946C1.3468 4.66557 1.91825 3.59648 2.75736 2.75736C3.59648 1.91825 4.66557 1.3468 5.82946 1.11529C6.99335 0.88378 8.19975 1.0026 9.2961 1.45673C10.3925 1.91085 11.3295 2.67989 11.9888 3.66658C12.6481 4.65328 13 5.81331 13 7V8.96154" stroke="white" stroke-width="1.6" stroke-linejoin="round"/>
<path d="M15 8L13 11L11 8H15Z" fill="white" stroke="white"/>
</svg>
